<?xml version="1.0" encoding="utf-8"?>
<!-- Generator: Adobe Illustrator 22.0.0, SVG Export Plug-In . SVG Version: 6.00 Build 0)  -->
<svg version="1.1" id="Layer_1" xmlns="http://www.w3.org/2000/svg" xmlns:xlink="http://www.w3.org/1999/xlink" x="0px" y="0px"
	 viewBox="0 0 512 512" style="enable-background:new 0 0 512 512;" xml:space="preserve">
<style type="text/css">
	.st0{fill:#17FF80;}
</style>
<circle class="st0" cx="256" cy="256" r="245.8"/>
<path class="st0" d="M200.9,372.3c-6.5,0-13.1-2.5-18-7.5l-74.5-74.5c-10-10-10-26.1,0-36.1c10-10,26.1-10,36.1,0l56.4,56.4
	l157.4-157.4c10-10,26.1-10,36.1,0s10,26.1,0,36.1L219,364.8C214,369.8,207.5,372.3,200.9,372.3z"/>
<g>
	<path d="M256,512c-68.4,0-132.7-26.6-181-75C26.6,388.7,0,324.4,0,256S26.6,123.3,75,75C123.3,26.6,187.6,0,256,0
		s132.7,26.6,181,75c48.4,48.4,75,112.6,75,181s-26.6,132.7-75,181C388.7,485.4,324.4,512,256,512z M256,20.4
		C126.1,20.4,20.4,126.1,20.4,256S126.1,491.6,256,491.6S491.6,385.9,491.6,256S385.9,20.4,256,20.4z"/>
	<path d="M200.9,382.5c-9.5,0-18.5-3.7-25.2-10.5l-74.5-74.5c-13.9-13.9-13.9-36.6,0-50.5s36.6-13.9,50.5,0l49.2,49.2l150.2-150.2
		c13.9-13.9,36.6-13.9,50.5,0s13.9,36.6,0,50.5L226.2,372C219.4,378.8,210.5,382.5,200.9,382.5z M126.5,257c-3.9,0-7.8,1.5-10.8,4.5
		c-6,6-6,15.7,0,21.6l74.5,74.5c2.9,2.9,6.7,4.5,10.8,4.5s7.9-1.6,10.8-4.5l175.4-175.4c6-6,6-15.7,0-21.6c-6-6-15.7-6-21.6,0
		L208.1,317.9c-4,4-10.4,4-14.4,0l-56.4-56.4C134.3,258.5,130.4,257,126.5,257z"/>
	<path d="M256,476.3c-5.6,0-10.2-4.6-10.2-10.2s4.6-10.2,10.2-10.2c91.5,0,171.2-61.8,193.7-150.4c1.4-5.5,6.9-8.8,12.4-7.4
		c5.5,1.4,8.8,6.9,7.4,12.4C444.6,408.1,356.8,476.3,256,476.3z"/>
	<path d="M465.9,275.4c-0.1,0-0.3,0-0.4,0c-5.6-0.2-10-5-9.7-10.6c0.1-2.9,0.2-5.8,0.2-8.7c0-5.6,4.6-10.2,10.2-10.2
		c5.6,0,10.2,4.6,10.2,10.2c0,3.2-0.1,6.4-0.2,9.6C475.9,271.1,471.3,275.4,465.9,275.4z"/>
</g>
</svg>
