<?xml version="1.0"?>
<svg xmlns="http://www.w3.org/2000/svg" xmlns:xlink="http://www.w3.org/1999/xlink" version="1.1" id="Layer_1" x="0px" y="0px" viewBox="0 0 512 512" style="enable-background:new 0 0 512 512;" xml:space="preserve" width="512px" height="512px" class=""><g><circle style="fill:#F4FF12" cx="256" cy="256" r="245.801" data-original="#BCC987" class="" data-old_color="#BCC987"/><path style="fill:#F6FF41" d="M200.924,372.271c-6.525,0-13.051-2.49-18.03-7.468l-74.454-74.454  c-9.957-9.957-9.957-26.102,0-36.059c9.959-9.957,26.102-9.957,36.059,0l56.425,56.423L358.32,153.316  c9.959-9.957,26.102-9.957,36.059,0c9.957,9.957,9.957,26.102,0,36.059L218.953,364.802  C213.975,369.781,207.451,372.271,200.924,372.271z" data-original="#FFE6B8" class="active-path" data-old_color="#FFE6B8"/><g>
	<path style="fill:#000000" d="M256,512c-68.381,0-132.667-26.628-181.019-74.98C26.628,388.667,0,324.38,0,256   S26.628,123.333,74.981,74.98C123.333,26.628,187.619,0,256,0s132.667,26.628,181.019,74.98C485.372,123.333,512,187.62,512,256   s-26.628,132.667-74.981,181.02C388.667,485.372,324.381,512,256,512z M256,20.398C126.089,20.398,20.398,126.089,20.398,256   S126.089,491.602,256,491.602S491.602,385.911,491.602,256S385.911,20.398,256,20.398z" data-original="#4D3D36" class="" data-old_color="#4D3D36"/>
	<path style="fill:#000000" d="M200.924,382.47c-9.534,0-18.498-3.713-25.241-10.454l-74.455-74.454   c-13.918-13.919-13.918-36.566,0-50.484s36.565-13.918,50.483,0l49.213,49.211l150.184-150.184   c13.918-13.918,36.565-13.918,50.483,0s13.918,36.565,0.001,50.484L226.166,372.015C219.423,378.758,210.459,382.47,200.924,382.47   z M126.47,257.027c-3.919,0-7.836,1.491-10.818,4.473c-5.964,5.964-5.964,15.67,0.001,21.636l74.454,74.454   c2.889,2.889,6.731,4.482,10.817,4.482c4.086,0,7.928-1.592,10.818-4.482l175.425-175.426c5.966-5.966,5.966-15.671,0-21.636   c-5.964-5.965-15.67-5.965-21.637,0L208.136,317.926c-3.984,3.983-10.44,3.983-14.425,0l-56.424-56.424   C134.306,258.519,130.388,257.027,126.47,257.027z" data-original="#4D3D36" class="" data-old_color="#4D3D36"/>
	<path style="fill:#000000" d="M256,476.303c-5.632,0-10.199-4.566-10.199-10.199s4.567-10.199,10.199-10.199   c91.512,0,171.176-61.849,193.731-150.406c1.389-5.459,6.936-8.758,12.4-7.366c5.46,1.39,8.757,6.943,7.367,12.401   C444.64,408.136,356.847,476.303,256,476.303z" data-original="#4D3D36" class="" data-old_color="#4D3D36"/>
	<path style="fill:#000000" d="M465.914,275.378c-0.149,0-0.298-0.003-0.448-0.009c-5.628-0.243-9.993-5.003-9.749-10.63   c0.124-2.883,0.188-5.823,0.188-8.739c0-5.633,4.567-10.199,10.199-10.199c5.632,0,10.199,4.566,10.199,10.199   c0,3.208-0.069,6.444-0.207,9.619C475.859,271.097,471.344,275.378,465.914,275.378z" data-original="#4D3D36" class="" data-old_color="#4D3D36"/>
</g></g> </svg>
