<?xml version="1.0"?>
<svg xmlns="http://www.w3.org/2000/svg" xmlns:xlink="http://www.w3.org/1999/xlink" version="1.1" id="Layer_1" x="0px" y="0px" viewBox="0 0 512 512" style="enable-background:new 0 0 512 512;" xml:space="preserve" width="512px" height="512px" class=""><g><polygon style="fill:#7200FF" points="354.444,497.147 265.329,497.147 57.348,256 265.329,14.853 354.444,14.853 146.464,256 " data-original="#CEE8FA" class="" data-old_color="#CEE8FA"/><g>
	<path style="fill:#000000" d="M354.474,512c-0.009,0-0.019,0-0.03,0h-89.115c-4.321,0-8.426-1.88-11.248-5.152L46.101,265.7   c-4.806-5.574-4.806-13.828,0-19.402L254.081,5.152C256.903,1.88,261.008,0,265.329,0h89.115c5.809,0,11.084,3.386,13.502,8.666   c2.419,5.28,1.539,11.487-2.256,15.886L166.077,256l199.092,230.843c2.572,2.671,4.156,6.303,4.156,10.305   C369.326,505.351,362.677,512,354.474,512z M272.133,482.295h49.888L135.216,265.7c-4.806-5.574-4.806-13.828,0-19.402   L322.021,29.705h-49.888L76.961,256L272.133,482.295z" data-original="#2D527C" class="active-path" data-old_color="#2D527C"/>
	<path style="fill:#000000" d="M454.651,512H354.444c-4.321,0-8.426-1.882-11.248-5.152L135.216,265.7   c-4.806-5.574-4.806-13.828,0-19.402L343.196,5.152C346.018,1.882,350.123,0,354.444,0h100.207c5.809,0,11.084,3.386,13.502,8.666   c2.419,5.28,1.539,11.487-2.256,15.886L257.917,265.7c-5.357,6.213-14.737,6.903-20.948,1.548   c-6.211-5.357-6.903-14.735-1.546-20.948L422.228,29.705h-60.98L166.077,256l195.171,226.295h60.98L297.569,337.757   c-5.357-6.213-4.665-15.591,1.548-20.948c6.211-5.356,15.589-4.664,20.948,1.548l145.834,169.092   c3.793,4.399,4.674,10.606,2.256,15.886C465.736,508.614,460.459,512,454.651,512z" data-original="#2D527C" class="active-path" data-old_color="#2D527C"/>
</g></g> </svg>
