<?xml version="1.0" encoding="utf-8"?>
<!-- Generator: Adobe Illustrator 19.0.0, SVG Export Plug-In . SVG Version: 6.00 Build 0)  -->
<svg version="1.1" id="Objects" 
  xmlns="http://www.w3.org/2000/svg" 
  xmlns:xlink="http://www.w3.org/1999/xlink" x="0px" y="0px" viewBox="0 0 800 800" style="enable-background:new 0 0 800 800;" xml:space="preserve">
  <style type="text/css">
	.st0{clip-path:url(#SVGID_2_);}
	.st1{fill:#E3A882;}
	.st2{fill:#FFBF96;}
	.st3{fill:#FCDBCA;}
	.st4{fill:#FFFFFF;}
	.st5{fill:#466E6E;}
	.st6{opacity:0.1;}
	.st7{fill:#F7B03E;}
	.st8{fill:#5A40CA;}
	.st9{display:none;fill:#FFBD54;}
	.st10{font-family:'LeckerliOne';}
	.st11{font-size:127.1593px;}
	.st12{fill:#C6C6C6;}
	.st13{fill:#EAEAEA;}
	.st14{fill:#7A7A7A;}
	.st15{fill:#CC9774;}
	.st16{fill:#91734B;}
	.st17{fill:#704914;}
  </style>
  <g>
    <defs>
      <rect id="SVGID_1_" width="800" height="801.7"/>
    </defs>
    <clipPath id="SVGID_2_">
      <use xlink:href="#SVGID_1_" style="overflow:visible;"/>
    </clipPath>
    <g class="st0">
      <g>
        <g>
          <path class="st1" d="M462.7,197.3c0,0-11.6-1.2-18.2-10.1c0,0-9.5-2.8-25.7-19.3l11.3-15.2l36.6,24.5L462.7,197.3z"/>
          <path class="st1" d="M471,121.4c0,0,13.6,9.7,22.2,30.4l28.9,56.9c0,0,4.6,6.5-3.1,28.2l-15.3,33.6c0,0-1.4,4.5-4.4,7.4
					c-3.6,3.5-11.1,8.9-13.7,10.5c-4.9,3.1-12,9-12,9s-8.7,1.7-6.7-13.7c2-15.3,37.2-68.5,37.2-68.5L471,121.4z"/>
          <path class="st2" d="M462.7,292.8c0,0-18.2-17.9,8-42c0,0-3-15.8,7.2-35.2c0,0-11.7-5.7-17.8-25.1c0,0-12.8-10.5-31.6-28.6
					c0,0-33.5,22.2-42.1,18.9c0,0-7.8,28.5-8.4,41c-0.6,12.5-2.2,58-30,54.6c0,0-11.3-0.6-5.5-27.6c0,0-5-33,0.1-72
					c0,0-3.1-14.8-9.1-27.6c-6-12.8-9.1-34.3-6.4-52l-14.6-70.2c0,0,48.3-8,77.1,10.9c0,0,4,27.5,20.3,39.4
					c16.3,12,54.6,37.4,54.6,37.4s16.2,12.8,28.1,47.4c11.8,34.6,16.4,49.8,16.8,57.1c0.4,7.2-18.4,45.8-18.4,45.8
					S466.5,296.5,462.7,292.8z"/>
          <g>
            <path class="st3" d="M357.7,248.5c1.8,5-2.2,22.3-7,24.7c-12.1,6.2-10.5-14.8-8.6-22.1C342.1,251.1,341.4,245.7,357.7,248.5z" />
          </g>
        </g>
        <polygon class="st4" points="303.4,59.3 400.3,47.2 378,-108.9 259.5,-121.9 			"/>
        <polygon class="st5" points="408.5,32.2 281.8,48.7 230.8,-134.6 382.1,-129.7 			"/>
        <polygon class="st6" points="328.3,42.7 281.7,-133 230.8,-134.6 281.8,48.7 			"/>
        <path class="st7" d="M304.4,7.3c-1.5-5.1-6.9-8.1-12-6.6c-5.1,1.5-8.1,6.9-6.6,12c1.5,5.1,6.9,8.1,12,6.6
				C302.9,17.8,305.9,12.4,304.4,7.3z"/>
        <path class="st7" d="M296.3-25.5c-1.5-5.1-6.9-8.1-12-6.6c-5.1,1.5-8.1,6.9-6.6,12c1.5,5.1,6.9,8.1,12,6.6
				C294.9-15,297.8-20.4,296.3-25.5z"/>
      </g>
      <g>
        <g>
          <path class="st8" d="M361,302.7c73.3,97.3,15.6,65.4-32.2,143.2c-27.6,46.1-33.3,113.4-3,157.5c31.2,45.1,79,39.3,122.5,37.1
					c26.3-1.3,45.2-18.6,62.2-44.1c15.6-23.4,18.2-62.2,12.9-87.9c-8-40-25.2-76.5-53.7-101.2c-31.2-26.7-68.1-42.6-8-103.7
					c-16.9-5.1-34.7,6.2-49,3.1c-9.8-1-10.7-6.2-21.4-5.1C382.3,303.8,370.8,303.8,361,302.7"/>
        </g>
        <g class="st6">
          <g>
            <path d="M521.4,507.1c-7.9-39.3-24.7-75.3-52.3-99.9c16,22,26.5,49,32.3,77.7c5.3,25.6,2.7,64.5-12.9,87.9
						c-17,25.5-35.9,42.8-62.2,44.1c-35.6,1.8-74.1,6-104-17.2c0.5,0.8,1,1.5,1.5,2.3c31.2,45.1,79,39.3,122.5,37.1
						c26.3-1.3,45.2-18.6,62.2-44.1C524.1,571.6,526.8,532.7,521.4,507.1z"/>
          </g>
        </g>
        <text transform="matrix(0.9715 -0.2372 0.2372 0.9715 382.6609 553.1462)" class="st9 st10 st11">$</text>
        <path class="st6" d="M386.3,304.3c0,0,17.3,28.8,18.3,59.8c0,0,5.7-32.8,0-58.1C404.7,306,397.7,296,386.3,304.3z"/>
        <path class="st6" d="M423.2,307c0,0-8.3,22.9-7.6,53.3c0,0,5.3-37.3,21.7-56C437.3,304.3,424.7,306.9,423.2,307z"/>
      </g>
      <g>
        <polygon class="st12" points="417.8,445.4 417,448.3 417,533.6 417.8,534.4 457.4,511 			"/>
        <polygon class="st13" points="417.8,445.4 378.3,511 417.8,534.4 417.8,493 			"/>
        <polygon class="st12" points="417.8,541.9 417.4,542.5 417.4,572.9 417.8,574.3 457.4,518.5 			"/>
        <polygon class="st14" points="417.8,574.3 417.8,541.9 378.3,518.5 			"/>
        <polygon class="st14" points="417.8,534.4 457.4,511 417.8,493 			"/>
        <polygon class="st12" points="378.3,511 417.8,534.4 417.8,493 			"/>
      </g>
      <g>
        <path class="st15" d="M281.4,622l-8.2,8.8L432.6,687l20-23.5C452.7,663.5,314.9,602,281.4,622z"/>
        <path class="st1" d="M275.1,612.9l-8.7,6.8l157.9,62.7l20.8-22.9C445.1,659.6,302.1,598.3,275.1,612.9z"/>
        <path class="st2" d="M718.8,601.4c0,0-109.4-6.9-125.7-9c-16.3-2.1-73.6-27.7-120,21l-43.3,5.3c0,0-46.5-13.6-59.2,6.8
				c0,0-68.9-33.6-92.6-10.9c0,0,123.5,55,137.3,67.8c0,0,22.9,22.2,34.2,18.9c11.3-3.3,113.7-35.5,155.8-35.8L730.3,676
				L718.8,601.4z"/>
        <path class="st1" d="M370.7,625.5c0,0-15.2,31.2,104.6,26.4l32.1-9.5l-29.9,14.6C477.4,657.1,356.4,665.3,370.7,625.5z"/>
        <path class="st3" d="M402.6,625.9c0,0,2.7,10.6-4.8,17c0,0-23-1.9-22.4-10.8C376.3,617.9,402.6,625.9,402.6,625.9z"/>
        <polygon class="st4" points="611,585.1 616.2,686.2 794.8,691.9 792.1,572.1 			"/>
        <polygon class="st16" points="630,573 628.9,701 813.7,712.8 811.2,558.2 			"/>
        <polygon class="st6" points="813,671.6 629.2,667.5 628.9,701 813.7,712.8 			"/>
        <path class="st17" d="M674.3,682.8c0.8,5.2-2.8,10.1-8,10.9c-5.2,0.8-10.1-2.8-10.9-8c-0.8-5.2,2.8-10.1,8-10.9
				C668.6,674.1,673.5,677.6,674.3,682.8z"/>
        <path class="st17" d="M706.3,684.7c0.8,5.2-2.8,10.1-8,10.9c-5.2,0.8-10.1-2.8-10.9-8c-0.8-5.2,2.8-10.1,8-10.9
				C700.6,676,705.5,679.5,706.3,684.7z"/>
      </g>
    </g>
  </g>
</svg>
