<svg xmlns="http://www.w3.org/2000/svg" 
  xmlns:xlink="http://www.w3.org/1999/xlink" version="1.1" id="el_cX4xF90O4" x="0px" y="0px" viewBox="0 0 595 595" style="enable-background:new 0 0 595.3 595.3;" xml:space="preserve">
  <style>@-webkit-keyframes kf_el_kYrTxzzmjvm_an_IpX5fWFyE{0%{-webkit-transform: translate(98.99999618530273px, 461.09999084472656px) rotate(-25deg) translate(-98.99999618530273px, -461.09999084472656px);transform: translate(98.99999618530273px, 461.09999084472656px) rotate(-25deg) translate(-98.99999618530273px, -461.09999084472656px);}50%{-webkit-transform: translate(98.99999618530273px, 461.09999084472656px) rotate(5deg) translate(-98.99999618530273px, -461.09999084472656px);transform: translate(98.99999618530273px, 461.09999084472656px) rotate(5deg) translate(-98.99999618530273px, -461.09999084472656px);}100%{-webkit-transform: translate(98.99999618530273px, 461.09999084472656px) rotate(-25deg) translate(-98.99999618530273px, -461.09999084472656px);transform: translate(98.99999618530273px, 461.09999084472656px) rotate(-25deg) translate(-98.99999618530273px, -461.09999084472656px);}}@keyframes kf_el_kYrTxzzmjvm_an_IpX5fWFyE{0%{-webkit-transform: translate(98.99999618530273px, 461.09999084472656px) rotate(-25deg) translate(-98.99999618530273px, -461.09999084472656px);transform: translate(98.99999618530273px, 461.09999084472656px) rotate(-25deg) translate(-98.99999618530273px, -461.09999084472656px);}50%{-webkit-transform: translate(98.99999618530273px, 461.09999084472656px) rotate(5deg) translate(-98.99999618530273px, -461.09999084472656px);transform: translate(98.99999618530273px, 461.09999084472656px) rotate(5deg) translate(-98.99999618530273px, -461.09999084472656px);}100%{-webkit-transform: translate(98.99999618530273px, 461.09999084472656px) rotate(-25deg) translate(-98.99999618530273px, -461.09999084472656px);transform: translate(98.99999618530273px, 461.09999084472656px) rotate(-25deg) translate(-98.99999618530273px, -461.09999084472656px);}}@-webkit-keyframes kf_el_kYrTxzzmjvm_an_qmEpoSKpY{0%{-webkit-transform: translate(98.99999618530273px, 461.09999084472656px) translate(-98.99999618530273px, -461.09999084472656px) translate(0px, 0px);transform: translate(98.99999618530273px, 461.09999084472656px) translate(-98.99999618530273px, -461.09999084472656px) translate(0px, 0px);}50%{-webkit-transform: translate(98.99999618530273px, 461.09999084472656px) translate(-98.99999618530273px, -461.09999084472656px) translate(69px, 0px);transform: translate(98.99999618530273px, 461.09999084472656px) translate(-98.99999618530273px, -461.09999084472656px) translate(69px, 0px);}100%{-webkit-transform: translate(98.99999618530273px, 461.09999084472656px) translate(-98.99999618530273px, -461.09999084472656px) translate(0px, 0px);transform: translate(98.99999618530273px, 461.09999084472656px) translate(-98.99999618530273px, -461.09999084472656px) translate(0px, 0px);}}@keyframes kf_el_kYrTxzzmjvm_an_qmEpoSKpY{0%{-webkit-transform: translate(98.99999618530273px, 461.09999084472656px) translate(-98.99999618530273px, -461.09999084472656px) translate(0px, 0px);transform: translate(98.99999618530273px, 461.09999084472656px) translate(-98.99999618530273px, -461.09999084472656px) translate(0px, 0px);}50%{-webkit-transform: translate(98.99999618530273px, 461.09999084472656px) translate(-98.99999618530273px, -461.09999084472656px) translate(69px, 0px);transform: translate(98.99999618530273px, 461.09999084472656px) translate(-98.99999618530273px, -461.09999084472656px) translate(69px, 0px);}100%{-webkit-transform: translate(98.99999618530273px, 461.09999084472656px) translate(-98.99999618530273px, -461.09999084472656px) translate(0px, 0px);transform: translate(98.99999618530273px, 461.09999084472656px) translate(-98.99999618530273px, -461.09999084472656px) translate(0px, 0px);}}@-webkit-keyframes kf_el_7Kr1Zr2W38p_an_d9H3xsFue{0%{-webkit-transform: translate(321.5500030517578px, 100.64999866485596px) rotate(0deg) translate(-321.5500030517578px, -100.64999866485596px);transform: translate(321.5500030517578px, 100.64999866485596px) rotate(0deg) translate(-321.5500030517578px, -100.64999866485596px);}50%{-webkit-transform: translate(321.5500030517578px, 100.64999866485596px) rotate(15deg) translate(-321.5500030517578px, -100.64999866485596px);transform: translate(321.5500030517578px, 100.64999866485596px) rotate(15deg) translate(-321.5500030517578px, -100.64999866485596px);}100%{-webkit-transform: translate(321.5500030517578px, 100.64999866485596px) rotate(0deg) translate(-321.5500030517578px, -100.64999866485596px);transform: translate(321.5500030517578px, 100.64999866485596px) rotate(0deg) translate(-321.5500030517578px, -100.64999866485596px);}}@keyframes kf_el_7Kr1Zr2W38p_an_d9H3xsFue{0%{-webkit-transform: translate(321.5500030517578px, 100.64999866485596px) rotate(0deg) translate(-321.5500030517578px, -100.64999866485596px);transform: translate(321.5500030517578px, 100.64999866485596px) rotate(0deg) translate(-321.5500030517578px, -100.64999866485596px);}50%{-webkit-transform: translate(321.5500030517578px, 100.64999866485596px) rotate(15deg) translate(-321.5500030517578px, -100.64999866485596px);transform: translate(321.5500030517578px, 100.64999866485596px) rotate(15deg) translate(-321.5500030517578px, -100.64999866485596px);}100%{-webkit-transform: translate(321.5500030517578px, 100.64999866485596px) rotate(0deg) translate(-321.5500030517578px, -100.64999866485596px);transform: translate(321.5500030517578px, 100.64999866485596px) rotate(0deg) translate(-321.5500030517578px, -100.64999866485596px);}}@-webkit-keyframes kf_el_7Kr1Zr2W38p_an_x9LDAEhsD{0%{-webkit-transform: translate(321.5500030517578px, 100.64999866485596px) translate(-321.5500030517578px, -100.64999866485596px) translate(0px, 0px);transform: translate(321.5500030517578px, 100.64999866485596px) translate(-321.5500030517578px, -100.64999866485596px) translate(0px, 0px);}50%{-webkit-transform: translate(321.5500030517578px, 100.64999866485596px) translate(-321.5500030517578px, -100.64999866485596px) translate(0px, 100px);transform: translate(321.5500030517578px, 100.64999866485596px) translate(-321.5500030517578px, -100.64999866485596px) translate(0px, 100px);}100%{-webkit-transform: translate(321.5500030517578px, 100.64999866485596px) translate(-321.5500030517578px, -100.64999866485596px) translate(0px, 0px);transform: translate(321.5500030517578px, 100.64999866485596px) translate(-321.5500030517578px, -100.64999866485596px) translate(0px, 0px);}}@keyframes kf_el_7Kr1Zr2W38p_an_x9LDAEhsD{0%{-webkit-transform: translate(321.5500030517578px, 100.64999866485596px) translate(-321.5500030517578px, -100.64999866485596px) translate(0px, 0px);transform: translate(321.5500030517578px, 100.64999866485596px) translate(-321.5500030517578px, -100.64999866485596px) translate(0px, 0px);}50%{-webkit-transform: translate(321.5500030517578px, 100.64999866485596px) translate(-321.5500030517578px, -100.64999866485596px) translate(0px, 100px);transform: translate(321.5500030517578px, 100.64999866485596px) translate(-321.5500030517578px, -100.64999866485596px) translate(0px, 100px);}100%{-webkit-transform: translate(321.5500030517578px, 100.64999866485596px) translate(-321.5500030517578px, -100.64999866485596px) translate(0px, 0px);transform: translate(321.5500030517578px, 100.64999866485596px) translate(-321.5500030517578px, -100.64999866485596px) translate(0px, 0px);}}@-webkit-keyframes kf_el_N0OudbQvge_an_NDDTzckPA{0%{-webkit-transform: translate(346.34999084472656px, 111.29999923706055px) rotate(0deg) translate(-346.34999084472656px, -111.29999923706055px);transform: translate(346.34999084472656px, 111.29999923706055px) rotate(0deg) translate(-346.34999084472656px, -111.29999923706055px);}50%{-webkit-transform: translate(346.34999084472656px, 111.29999923706055px) rotate(5deg) translate(-346.34999084472656px, -111.29999923706055px);transform: translate(346.34999084472656px, 111.29999923706055px) rotate(5deg) translate(-346.34999084472656px, -111.29999923706055px);}100%{-webkit-transform: translate(346.34999084472656px, 111.29999923706055px) rotate(0deg) translate(-346.34999084472656px, -111.29999923706055px);transform: translate(346.34999084472656px, 111.29999923706055px) rotate(0deg) translate(-346.34999084472656px, -111.29999923706055px);}}@keyframes kf_el_N0OudbQvge_an_NDDTzckPA{0%{-webkit-transform: translate(346.34999084472656px, 111.29999923706055px) rotate(0deg) translate(-346.34999084472656px, -111.29999923706055px);transform: translate(346.34999084472656px, 111.29999923706055px) rotate(0deg) translate(-346.34999084472656px, -111.29999923706055px);}50%{-webkit-transform: translate(346.34999084472656px, 111.29999923706055px) rotate(5deg) translate(-346.34999084472656px, -111.29999923706055px);transform: translate(346.34999084472656px, 111.29999923706055px) rotate(5deg) translate(-346.34999084472656px, -111.29999923706055px);}100%{-webkit-transform: translate(346.34999084472656px, 111.29999923706055px) rotate(0deg) translate(-346.34999084472656px, -111.29999923706055px);transform: translate(346.34999084472656px, 111.29999923706055px) rotate(0deg) translate(-346.34999084472656px, -111.29999923706055px);}}@-webkit-keyframes kf_el_N0OudbQvge_an_8TTB1a0kE{0%{-webkit-transform: translate(346.34999084472656px, 111.29999923706055px) translate(-346.34999084472656px, -111.29999923706055px) translate(0px, 0px);transform: translate(346.34999084472656px, 111.29999923706055px) translate(-346.34999084472656px, -111.29999923706055px) translate(0px, 0px);}50%{-webkit-transform: translate(346.34999084472656px, 111.29999923706055px) translate(-346.34999084472656px, -111.29999923706055px) translate(-15px, 60px);transform: translate(346.34999084472656px, 111.29999923706055px) translate(-346.34999084472656px, -111.29999923706055px) translate(-15px, 60px);}100%{-webkit-transform: translate(346.34999084472656px, 111.29999923706055px) translate(-346.34999084472656px, -111.29999923706055px) translate(0px, 0px);transform: translate(346.34999084472656px, 111.29999923706055px) translate(-346.34999084472656px, -111.29999923706055px) translate(0px, 0px);}}@keyframes kf_el_N0OudbQvge_an_8TTB1a0kE{0%{-webkit-transform: translate(346.34999084472656px, 111.29999923706055px) translate(-346.34999084472656px, -111.29999923706055px) translate(0px, 0px);transform: translate(346.34999084472656px, 111.29999923706055px) translate(-346.34999084472656px, -111.29999923706055px) translate(0px, 0px);}50%{-webkit-transform: translate(346.34999084472656px, 111.29999923706055px) translate(-346.34999084472656px, -111.29999923706055px) translate(-15px, 60px);transform: translate(346.34999084472656px, 111.29999923706055px) translate(-346.34999084472656px, -111.29999923706055px) translate(-15px, 60px);}100%{-webkit-transform: translate(346.34999084472656px, 111.29999923706055px) translate(-346.34999084472656px, -111.29999923706055px) translate(0px, 0px);transform: translate(346.34999084472656px, 111.29999923706055px) translate(-346.34999084472656px, -111.29999923706055px) translate(0px, 0px);}}#el_cX4xF90O4 *{-webkit-animation-duration: 3s;animation-duration: 3s;-webkit-animation-iteration-count: infinite;animation-iteration-count: infinite;-webkit-animation-timing-function: cubic-bezier(0, 0, 1, 1);animation-timing-function: cubic-bezier(0, 0, 1, 1);}#el_9Dwc9qQLZ{fill: none;}#el_DpZPljI_Zr{fill: #BBBDBF;}#el_NVMvgxZRuQ{fill: #8BC543;stroke: #006738;stroke-width: 9.5702;stroke-miterlimit: 10;}#el_iJl_e2dRTX{fill: #006738;}#el_NI6nO-2w2B{fill: #006738;}#el_p4Q1mc2j0y{fill: #8BC543;}#el_-JwDKoZ0kN{fill: #8BC543;}#el_BTEEqq_FZ3{fill: #8BC543;}#el_232uDUe1JN{fill: #006738;}#el_uV_8GqxZrJ{fill: #006738;}#el_Gjllkm52DQ{fill: #006738;}#el_V5fsI8keRn{fill: #006738;}#el_3sPIAOvgZMb{fill: #006738;}#el_lPllA8AvRzQ{fill: #8BC543;stroke: #006738;stroke-width: 9.5702;stroke-miterlimit: 10;}#el_eEVfgDfpbR2{fill: #006738;}#el_nOQdYVsiw-C{fill: #006738;}#el_dIcXMBw3beV{fill: #8BC543;}#el_VoSBGpaeyp1{fill: #8BC543;}#el_lZKvgHq1fU5{fill: #8BC543;}#el_N3hlQefl84_{fill: #006738;}#el_GEkuuJNOq7X{fill: #006738;}#el_50KH9JJuDZi{fill: #006738;}#el_gT2tgSRXHah{fill: #006738;}#el_RkF_q_VtsEd{fill: #006738;}#el_2L5sh099Pfu{opacity: 0.3;fill: #221F1F;}#el_q9kTW22rm8R{fill: #E6E6E7;}#el_UgkrTAkcAsd{fill: #E6E6E7;}#el_oU9KDYtgfvE{fill: #E2A540;}#el_lPoQC3AouGj{fill: #E2A540;}#el_swK6Rk_UV_g{fill: #E2A540;}#el_xIqs_D5j3f9{fill: #744C29;}#el_S-amZKKG1WN{fill: #D0D2D3;}#el_P2yeC0dXKVQ{fill: #D0D2D3;}#el_O5kb69UHtz6{fill: #F7F7F7;}#el_jK26IyrQyBG{fill: #F7F7F7;}#el_dNv1anNc2Pq{fill: #E8AF2E;}#el_bdeHwNlGVD0{fill: #F9CA35;}#el_GExaVBHDfk8{fill: #C38728;}#el_v7frZfxwwhq{fill: #C38728;}#el_VMdg_qa8pyX{fill: #C38728;}#el_LOTusULunXE{fill: #FFFFFF;}#el_Tmym_WZ69Ch{fill: #FFFFFF;}#el_DscZlGRUI4I{fill: #FFFFFF;}#el_N0OudbQvge_an_8TTB1a0kE{-webkit-animation-fill-mode: backwards;animation-fill-mode: backwards;-webkit-transform: translate(346.34999084472656px, 111.29999923706055px) translate(-346.34999084472656px, -111.29999923706055px) translate(0px, 0px);transform: translate(346.34999084472656px, 111.29999923706055px) translate(-346.34999084472656px, -111.29999923706055px) translate(0px, 0px);-webkit-animation-name: kf_el_N0OudbQvge_an_8TTB1a0kE;animation-name: kf_el_N0OudbQvge_an_8TTB1a0kE;-webkit-animation-timing-function: cubic-bezier(0, 0, 1, 1);animation-timing-function: cubic-bezier(0, 0, 1, 1);}#el_N0OudbQvge_an_NDDTzckPA{-webkit-animation-fill-mode: backwards;animation-fill-mode: backwards;-webkit-transform: translate(346.34999084472656px, 111.29999923706055px) rotate(0deg) translate(-346.34999084472656px, -111.29999923706055px);transform: translate(346.34999084472656px, 111.29999923706055px) rotate(0deg) translate(-346.34999084472656px, -111.29999923706055px);-webkit-animation-name: kf_el_N0OudbQvge_an_NDDTzckPA;animation-name: kf_el_N0OudbQvge_an_NDDTzckPA;-webkit-animation-timing-function: cubic-bezier(0, 0, 1, 1);animation-timing-function: cubic-bezier(0, 0, 1, 1);}#el_7Kr1Zr2W38p_an_x9LDAEhsD{-webkit-animation-fill-mode: backwards;animation-fill-mode: backwards;-webkit-transform: translate(321.5500030517578px, 100.64999866485596px) translate(-321.5500030517578px, -100.64999866485596px) translate(0px, 0px);transform: translate(321.5500030517578px, 100.64999866485596px) translate(-321.5500030517578px, -100.64999866485596px) translate(0px, 0px);-webkit-animation-name: kf_el_7Kr1Zr2W38p_an_x9LDAEhsD;animation-name: kf_el_7Kr1Zr2W38p_an_x9LDAEhsD;-webkit-animation-timing-function: cubic-bezier(0, 0, 1, 1);animation-timing-function: cubic-bezier(0, 0, 1, 1);}#el_7Kr1Zr2W38p_an_d9H3xsFue{-webkit-animation-fill-mode: backwards;animation-fill-mode: backwards;-webkit-transform: translate(321.5500030517578px, 100.64999866485596px) rotate(0deg) translate(-321.5500030517578px, -100.64999866485596px);transform: translate(321.5500030517578px, 100.64999866485596px) rotate(0deg) translate(-321.5500030517578px, -100.64999866485596px);-webkit-animation-name: kf_el_7Kr1Zr2W38p_an_d9H3xsFue;animation-name: kf_el_7Kr1Zr2W38p_an_d9H3xsFue;-webkit-animation-timing-function: cubic-bezier(0, 0, 1, 1);animation-timing-function: cubic-bezier(0, 0, 1, 1);}#el_kYrTxzzmjvm_an_qmEpoSKpY{-webkit-animation-fill-mode: backwards;animation-fill-mode: backwards;-webkit-transform: translate(98.99999618530273px, 461.09999084472656px) translate(-98.99999618530273px, -461.09999084472656px) translate(0px, 0px);transform: translate(98.99999618530273px, 461.09999084472656px) translate(-98.99999618530273px, -461.09999084472656px) translate(0px, 0px);-webkit-animation-name: kf_el_kYrTxzzmjvm_an_qmEpoSKpY;animation-name: kf_el_kYrTxzzmjvm_an_qmEpoSKpY;-webkit-animation-timing-function: cubic-bezier(0, 0, 1, 1);animation-timing-function: cubic-bezier(0, 0, 1, 1);}#el_kYrTxzzmjvm_an_IpX5fWFyE{-webkit-animation-fill-mode: backwards;animation-fill-mode: backwards;-webkit-transform: translate(98.99999618530273px, 461.09999084472656px) rotate(-25deg) translate(-98.99999618530273px, -461.09999084472656px);transform: translate(98.99999618530273px, 461.09999084472656px) rotate(-25deg) translate(-98.99999618530273px, -461.09999084472656px);-webkit-animation-name: kf_el_kYrTxzzmjvm_an_IpX5fWFyE;animation-name: kf_el_kYrTxzzmjvm_an_IpX5fWFyE;-webkit-animation-timing-function: cubic-bezier(0, 0, 1, 1);animation-timing-function: cubic-bezier(0, 0, 1, 1);}</style>

  <rect width="595.3" height="595.3" id="el_9Dwc9qQLZ"/>
  <g id="el_vl7xSniyZG">
    <path d="M248.9,279.4l-43.4-55.7c0,0,1-10.1,29-9.1c28,1,68.5-6.6,94.7-7.2c30.3-0.7,60.4,5,60.4,5l-45.3,67H248.9z" id="el_DpZPljI_Zr"/>
  </g>
  <g id="el_N0OudbQvge_an_8TTB1a0kE" data-animator-group="true" data-animator-type="0">
    <g id="el_N0OudbQvge_an_NDDTzckPA" data-animator-group="true" data-animator-type="1">
      <g id="el_N0OudbQvge">
        <path d="M417.3,55.3c-27.3,47.1-54,94.7-68.9,145c-24.3-7.2-48.5-14.4-73-21.6c12.6-50.8,16.4-102.3,27.2-156.4&#10;&#9;&#9;C342.8,28.7,380.3,40,417.3,55.3z" id="el_NVMvgxZRuQ"/>
        <path d="M344.2,83.7c21.7,6.2,32.7,24.7,25.3,40.2c-7.5,15.5-26.6,24.1-43.8,19.1c-17.2-5-29.3-22.4-26.8-39&#10;&#9;&#9;C301.6,87.4,322.5,77.7,344.2,83.7z" id="el_iJl_e2dRTX"/>
        <path d="M275.5,178.8c6.5,1.9,13,3.8,19.5,5.8c3.1-10.7-3.6-22-15-25.2C278.7,165.8,277.2,172.3,275.5,178.8z" id="el_NI6nO-2w2B"/>
        <g id="el_057F8qP8Pf">
          <g id="el_K7Wiy97yIL">
            <path d="M327,104.6c-2.8-0.6-4.7,1.2-5.8,5.2c-1.1,4-0.3,6.4,2.1,7c1.5,0.4,2.8,0.1,3.8-1c1.1-1.1,2.6-3.5,4.6-7.1&#10;&#9;&#9;&#9;&#9;c2-3.6,4.4-6.1,7.2-7.3c2.7-1.2,5.8-1.3,9.3-0.3c4,1.2,6.6,3.6,7.6,7.1c1.1,3.5,0.8,7.1-0.6,10.8c-3.5,8.9-9.3,12.7-17.4,11.7&#10;&#9;&#9;&#9;&#9;c0.6-2.5,1.2-5.1,1.8-7.6c4.3,0.7,7.4-1.4,9.1-6.1c1.6-4.4,0.6-7.2-3.1-8.3c-1.6-0.5-3-0.3-4.2,0.6c-1.2,0.9-2.9,3.2-5.1,6.9&#10;&#9;&#9;&#9;&#9;c-2.2,3.8-4.5,6.3-6.9,7.5c-2.4,1.3-4.9,1.5-7.6,0.8c-2.9-0.8-5.1-2.7-6.6-5.6c-1.5-2.9-1.8-6.5-0.7-11c2.1-8.8,6.9-12.6,14.2-11&#10;&#9;&#9;&#9;&#9;C328.2,99.4,327.6,102,327,104.6z" id="el_p4Q1mc2j0y"/>
          </g>
          <path d="M316.4,104.2c-0.6,2.4-1.2,4.8-1.8,7.2c-2.6-0.7-5.2-1.4-7.8-2.1c0.5-2.4,1-4.8,1.5-7.3&#10;&#9;&#9;&#9;C311.1,102.8,313.7,103.5,316.4,104.2z" id="el_-JwDKoZ0kN"/>
          <path d="M362.9,117.5c-1,2.3-1.9,4.6-2.9,6.9c-2.5-0.8-5.1-1.5-7.6-2.3c0.9-2.3,1.8-4.7,2.7-7&#10;&#9;&#9;&#9;C357.7,115.9,360.3,116.7,362.9,117.5z" id="el_BTEEqq_FZ3"/>
        </g>
        <path d="M347.3,200c2-6.4,4.1-12.8,6.3-19.2c-11-3.3-22.5,2.7-25.7,13.4C334.4,196.2,340.9,198.1,347.3,200z" id="el_232uDUe1JN"/>
        <path d="M415.6,54.6c-9.9-4.1-19.7-7.8-29.7-11.3c-4.8,10.9,3.8,23.6,19.5,29.4C408.8,66.7,412.2,60.7,415.6,54.6z" id="el_uV_8GqxZrJ"/>
        <path d="M302.7,22.3c-1.3,6.9-2.6,13.8-3.8,20.6c16.5,3,31.8-3,35.2-14.5C323.8,26.1,313.4,24,302.7,22.3z" id="el_Gjllkm52DQ"/>
        <path d="M321.9,155.7c3.8,1.1,6,5,4.9,8.6c-1.1,3.6-5,5.7-8.8,4.6c-3.7-1.1-5.9-4.9-4.9-8.6&#10;&#9;&#9;C314.1,156.7,318.1,154.6,321.9,155.7z" id="el_V5fsI8keRn"/>
        <path d="M353.4,57c5.3,1.5,8.4,5.9,7,9.6c-1.5,3.7-6.7,5.5-11.7,4.1c-5-1.4-8.2-5.6-7.1-9.4&#10;&#9;&#9;C342.7,57.5,348,55.5,353.4,57z" id="el_3sPIAOvgZMb"/>
      </g>
    </g>
  </g>
  <g id="el_7Kr1Zr2W38p_an_x9LDAEhsD" data-animator-group="true" data-animator-type="0">
    <g id="el_7Kr1Zr2W38p_an_d9H3xsFue" data-animator-group="true" data-animator-type="1">
      <g id="el_7Kr1Zr2W38p">
        <path d="M382.9,32.1c-20.3,50.5-39.8,101.4-47.4,153.4c-25-3.6-50.1-7.3-75.3-10.9c5.2-52.1,1.6-103.6,4.6-158.7&#10;&#9;&#9;C305.3,16.4,344,22.2,382.9,32.1z" id="el_lPllA8AvRzQ"/>
        <path d="M314.5,70.7c22.4,3,35.9,19.8,30.8,36.1c-5.2,16.4-22.9,27.6-40.6,25.2c-17.7-2.5-32.3-17.9-32.1-34.8&#10;&#9;&#9;C272.9,80.4,292.2,67.8,314.5,70.7z" id="el_eEVfgDfpbR2"/>
        <path d="M260.2,174.5c6.7,1,13.4,1.9,20.1,2.9c1.5-11-6.7-21.3-18.4-22.8C261.4,161.2,260.9,167.9,260.2,174.5z" id="el_nOQdYVsiw-C"/>
        <g id="el_5bMCwDvXuGO">
          <g id="el_1WBYL-dQoCU">
            <path d="M300.5,93.8c-2.8-0.1-4.5,1.9-5,6c-0.5,4.1,0.6,6.3,3.1,6.7c1.6,0.2,2.8-0.3,3.6-1.6&#10;&#9;&#9;&#9;&#9;c0.9-1.2,2.1-3.8,3.6-7.7c1.5-3.9,3.5-6.7,6.1-8.2c2.5-1.6,5.6-2.1,9.2-1.6c4.2,0.6,7,2.6,8.6,5.9c1.5,3.3,1.8,6.9,0.9,10.7&#10;&#9;&#9;&#9;&#9;c-2.2,9.3-7.4,13.9-15.6,14.1c0.2-2.6,0.4-5.2,0.7-7.8c4.4,0,7.1-2.4,8.1-7.3c1-4.6-0.4-7.2-4.2-7.8c-1.7-0.2-3,0.2-4.1,1.2&#10;&#9;&#9;&#9;&#9;c-1,1-2.4,3.6-4,7.6c-1.6,4-3.5,6.8-5.7,8.4c-2.2,1.6-4.6,2.2-7.5,1.8c-3-0.4-5.5-1.9-7.4-4.6c-1.9-2.6-2.7-6.2-2.3-10.8&#10;&#9;&#9;&#9;&#9;c0.8-9,5-13.4,12.5-13C300.9,88.5,300.7,91.1,300.5,93.8z" id="el_dIcXMBw3beV"/>
          </g>
          <path d="M289.9,94.9c-0.2,2.5-0.5,4.9-0.7,7.4c-2.7-0.3-5.3-0.6-8-0.9c0.2-2.5,0.3-4.9,0.5-7.4&#10;&#9;&#9;&#9;C284.5,94.3,287.2,94.6,289.9,94.9z" id="el_VoSBGpaeyp1"/>
          <path d="M337.9,101.4c-0.6,2.4-1.3,4.9-1.9,7.3c-2.6-0.4-5.2-0.8-7.8-1.2c0.5-2.4,1.1-4.9,1.7-7.3&#10;&#9;&#9;&#9;C332.5,100.6,335.2,101,337.9,101.4z" id="el_lZKvgHq1fU5"/>
        </g>
        <path d="M334.3,185.3c1-6.6,2.2-13.3,3.5-19.9c-11.3-1.7-21.9,5.9-23.5,17C321,183.4,327.6,184.3,334.3,185.3z" id="el_N3hlQefl84_"/>
        <path d="M381,31.6c-10.3-2.6-20.7-4.9-31-6.9c-3.2,11.5,7.2,22.8,23.5,26.3C376,44.6,378.5,38.1,381,31.6z" id="el_GEkuuJNOq7X"/>
        <path d="M264.7,15.8c-0.3,7-0.6,14-0.8,20.9c16.8,0.6,31-7.5,32.7-19.4C286.1,16.5,275.5,16,264.7,15.8z" id="el_50KH9JJuDZi"/>
        <path d="M302.8,145.1c4,0.6,6.7,4.1,6.1,7.8c-0.6,3.8-4.2,6.4-8,5.8c-3.8-0.5-6.6-4-6.1-7.8&#10;&#9;&#9;C295.3,147.2,298.9,144.6,302.8,145.1z" id="el_gT2tgSRXHah"/>
        <path d="M319.8,42.9c5.5,0.7,9.2,4.6,8.3,8.5c-0.9,3.9-5.8,6.4-11,5.7c-5.2-0.7-8.9-4.4-8.3-8.3&#10;&#9;&#9;C309.3,44.9,314.3,42.2,319.8,42.9z" id="el_RkF_q_VtsEd"/>
      </g>
    </g>
  </g>
  <path d="M423.2,503.7c0,8.7-63,15.7-132.5,15.7c-69.5,0-119.2-7-119.2-15.7c0-8.7,49.7-15.7,119.2-15.7&#10;&#9;C360.2,488.1,423.2,495.1,423.2,503.7z" id="el_2L5sh099Pfu"/>
  <g id="el_fEQ6S0dotV1">
    <path d="M248.9,279.4l-43.4-55.7c0,0,1-17.2,29-16.3c28,1,57.8,13,84,14.2c37.5,1.8,71.1-9.3,71.1-9.3l-45.3,67H248.9z&#10;&#9;&#9;" id="el_q9kTW22rm8R"/>
    <path d="M399.4,381.9c-13.9-34.2-35.3-70-55.1-102.4h-95.4c-19.5,32.4-39.2,68.7-54.7,102.4&#10;&#9;&#9;c-32.9,72.1-14.2,95.9,24.5,112.9c28.7,12.6,127.6,12.6,156.2,0C413.5,477.8,423.3,440.6,399.4,381.9z" id="el_UgkrTAkcAsd"/>
    <g id="el_JR4AW0ZL_8H">
      <g id="el_aH4a1TkKwGi">
        <path d="M314,374.3c-0.6-6.9-6.9-10.3-19-10.4c-12.1,0-18.2,3.2-18.3,9.7c0,4,1.9,6.9,5.8,8.6&#10;&#9;&#9;&#9;&#9;c3.9,1.8,11.8,3.9,23.6,6.2c11.8,2.3,20.5,6.1,26,11.5c5.5,5.3,8.3,12.3,8.3,20.8c0,9.9-4.5,17.6-13.4,23c-8.9,5.4-19.1,8-30.6,8&#10;&#9;&#9;&#9;&#9;c-27.7-0.1-43.5-10.8-47.3-32l22.9-1.8c1.7,11.1,9.8,16.7,24.5,16.8c13.8,0,20.7-4.6,20.7-13.9c0-4.1-1.6-7.2-5-9.2&#10;&#9;&#9;&#9;&#9;c-3.3-2-11.2-4.3-23.5-6.7c-12.3-2.5-21.2-6.2-26.7-11.1c-5.5-5-8.2-11.1-8.2-18.5c0-7.9,3.6-14.6,10.6-20.1&#10;&#9;&#9;&#9;&#9;c7.1-5.5,17.3-8.2,30.7-8.1c26.6,0.1,40.5,9,41.8,26.6L314,374.3z" id="el_oU9KDYtgfvE"/>
      </g>
      <polygon points="307.3,349.1 285.5,349 285.5,329.2 307.4,329.2 &#9;&#9;" id="el_lPoQC3AouGj"/>
      <polygon points="306.9,467.7 285.1,467.6 285.1,447.8 307,447.8 &#9;&#9;" id="el_swK6Rk_UV_g"/>
    </g>
    <path d="M353.1,281.5c0,1.9-1.9,3.4-4.3,3.4H242.9c-2.4,0-4.3-1.5-4.3-3.4v-2.8c0-1.9,1.9-3.4,4.3-3.4h105.9&#10;&#9;&#9;c2.4,0,4.3,1.5,4.3,3.4V281.5z" id="el_xIqs_D5j3f9"/>
    <path d="M323.7,489c17.6,12.7,49.1,1.9,60.7-6.4c16.2-11.5,23.6-34.4,21.8-50.8c-1.9-16.4-4.4-27.5-11-42.7&#10;&#9;&#9;c-2.3-5.4,8,16.5-4.6,46.1c-9.4,22.1-36.7,27.7-54.7,29.8C323.2,466.5,306.2,476.4,323.7,489z" id="el_S-amZKKG1WN"/>
    <path d="M313,272.3c0,0,33.4-12.1,49.8-29.1c18.6-19.1-18.3,29.1-18.3,29.1H313z" id="el_P2yeC0dXKVQ"/>
    <path d="M218.3,227.8c0,0,0.6,0.5,1.7,1.4c1,0.9,2.5,2.2,4.1,3.9c3.3,3.3,7.3,8,11,12.9c3.7,4.9,7.1,10,9.4,14.1&#10;&#9;&#9;c1.2,2,2.1,3.7,2.7,5c0.6,1.2,0.9,2,0.9,2s-0.6-0.5-1.7-1.4c-1-0.9-2.5-2.2-4.1-3.9c-3.5-3.6-7.2-7.8-11-12.9&#10;&#9;&#9;c-3.7-4.9-7.1-10-9.4-14.1c-1.2-2-2.1-3.7-2.7-5C218.6,228.5,218.3,227.8,218.3,227.8z" id="el_O5kb69UHtz6"/>
    <path d="M251.6,291.9c0,0-0.5,1.6-1.6,4.4c-1,2.8-2.6,6.7-4.5,11.4c-3.9,9.4-9.6,21.7-15.6,33.7&#10;&#9;&#9;c-6.1,12-12.6,23.9-17.9,32.6c-2.6,4.4-4.9,7.9-6.5,10.4c-1.6,2.5-2.6,3.9-2.6,3.9s0.5-1.6,1.6-4.4c1-2.8,2.6-6.7,4.5-11.4&#10;&#9;&#9;c3.9-9.4,9.6-21.7,15.7-33.7c6.1-12,12.6-23.9,17.9-32.6c2.6-4.4,4.9-7.9,6.5-10.4C250.7,293.3,251.6,291.9,251.6,291.9z" id="el_jK26IyrQyBG"/>
  </g>
  <g id="el_kYrTxzzmjvm_an_qmEpoSKpY" data-animator-group="true" data-animator-type="0">
    <g id="el_kYrTxzzmjvm_an_IpX5fWFyE" data-animator-group="true" data-animator-type="1">
      <g id="el_kYrTxzzmjvm">
        <g id="el_3KyrU7V33VU">
          <circle cx="101.2" cy="461.1" r="45.7" id="el_dNv1anNc2Pq"/>
          <circle cx="101.2" cy="461.1" r="37.5" id="el_bdeHwNlGVD0"/>
          <g id="el_aRIYcJB766W">
            <g id="el_wS2sRyW6kFm">
              <path d="M111.9,453.6c0.6-2.9-1.6-5-6.5-6.5c-5-1.5-7.8-0.9-8.6,1.7c-0.5,1.6,0,3,1.3,4.2c1.4,1.2,4.3,3,8.9,5.4&#10;&#9;&#9;&#9;&#9;&#9;c4.5,2.4,7.6,5,9.2,7.8c1.6,2.8,1.9,6,0.9,9.5c-1.2,4.1-4,6.6-8.2,7.8c-4.3,1.1-8.8,1-13.4-0.4c-11.3-3.4-16.4-9.6-15.4-18.8&#10;&#9;&#9;&#9;&#9;&#9;l9.6,2c-0.7,4.7,2,8,8,9.8c5.6,1.7,9,0.6,10.1-3.2c0.5-1.7,0.2-3.1-0.9-4.4c-1.1-1.2-4-3.1-8.8-5.6c-4.7-2.5-7.9-5.1-9.5-7.8&#10;&#9;&#9;&#9;&#9;&#9;c-1.6-2.7-2-5.5-1.1-8.5c1-3.2,3.2-5.5,6.8-6.9c3.5-1.4,8.1-1.2,13.5,0.4c10.8,3.3,15.5,8.6,13.8,15.9L111.9,453.6z" id="el_GExaVBHDfk8"/>
            </g>
            <polygon points="112.2,442.5 103.3,439.8 105.8,431.7 114.7,434.4 &#9;&#9;&#9;" id="el_v7frZfxwwhq"/>
            <polygon points="97.8,490.8 88.8,488.2 91.3,480.1 100.2,482.7 &#9;&#9;&#9;" id="el_VMdg_qa8pyX"/>
          </g>
        </g>
        <g id="el_agsfYi5_F2N">
          <g id="el_0ZZXfb1UT1S">
            <path d="M65.8,451.3c0-3.6,1.6-9.1,2.8-10.2c1.2-1.2,6.6-2.8,10.2-2.8c-3.6,0-8.9-1.4-10.2-2.8&#10;&#9;&#9;&#9;&#9;c-1.4-1.4-2.8-6.6-2.8-10.2c0,3.7-1.4,8.9-3,10.4c-1.6,1.6-6.6,2.6-10.1,2.6c3.6,0,8.9,1.4,10.2,2.8&#10;&#9;&#9;&#9;&#9;C64.4,442.4,65.8,447.7,65.8,451.3z" id="el_LOTusULunXE"/>
          </g>
          <g id="el_dpYdvffnkv4">
            <path d="M74.5,453.3c0-1.3,0.6-3.2,1-3.6c0.4-0.4,2.4-1,3.6-1c-1.3,0-3.2-0.5-3.6-1c-0.5-0.5-1-2.4-1-3.6&#10;&#9;&#9;&#9;&#9;c0,1.3-0.5,3.2-1.1,3.7c-0.6,0.6-2.3,0.9-3.6,0.9c1.3,0,3.2,0.5,3.6,1C74,450.2,74.5,452.1,74.5,453.3z" id="el_Tmym_WZ69Ch"/>
          </g>
          <g id="el_3rRCdxo893l">
            <path d="M57.6,463.1c0-1.8,0.8-4.5,1.4-5.1c0.6-0.6,3.3-1.4,5.1-1.4c-1.8,0-4.4-0.7-5.1-1.4&#10;&#9;&#9;&#9;&#9;c-0.7-0.7-1.4-3.3-1.4-5.1c0,1.8-0.7,4.4-1.5,5.1c-0.8,0.8-3.2,1.3-5,1.3c1.8,0,4.4,0.7,5.1,1.4&#10;&#9;&#9;&#9;&#9;C56.9,458.8,57.6,461.4,57.6,463.1z" id="el_DscZlGRUI4I"/>
          </g>
        </g>
      </g>
    </g>
  </g>
</svg>