<svg xmlns="http://www.w3.org/2000/svg" xmlns:xlink="http://www.w3.org/1999/xlink" version="1.1" x="0px" y="0px" width="254.154px" height="380.5px" viewBox="0 0 254.154 380.5" enable-background="new 0 0 254.154 380.5" xml:space="preserve"><g><g><path fill="#9A745E" d="M116.587 258.1v13.671l-10.978 0.035l-12.07 0.033v-13.731L116.587 258.1z"/><polygon fill="#A3A3A3" points="116.6,264.1 116.6,264.1 122.1,267.4 108.8,277.5 105.6,271.8"/><path fill="#B2927B" d="M116.587 258.1c-2.856 2.559-6.338 4.433-10.14 4.802c-0.008 0-0.023 0-0.039 0 c-0.445 0.046-0.892 0.068-1.345 0.068c-4.331 0-8.319-2.004-11.523-4.862c-4.671-4.187-7.683-10.194-7.683-14.458v-8.827 c0-10.671 8.536-19.321 19.206-19.321c10.664 0 19.2 8.7 19.2 19.321v8.827C124.269 247.9 121.3 253.9 116.6 258.1z"/><polygon fill="#A3A3A3" points="105.6,271.9 102.3,277.4 87.6,267.4 93.4,264.2"/><path fill="#8A1C1D" d="M76.839 277.206c-3.994 5.584-6.346 12.438-6.346 19.836v47.247v1.152c0 3.9 0.7 7.7 1.9 11.2 h0.007c0 0 0 0 0 0c4.632 13.4 17.3 23 32.3 22.986c14.903 0 27.579-9.542 32.258-22.848c0.001 0 0 0 0 0 c1.253-3.551 1.928-7.367 1.928-11.339v-48.399c0-7.645-2.512-14.712-6.768-20.404v-0.008c-2.735-3.672-6.192-6.776-10.156-9.104 l0 0h-0.008l-13.06 9.795l-3.265-5.516l-3.358 5.516l-14.565-9.949C83.4 269.8 79.7 273.2 76.8 277.206L76.839 277.206z"/></g></g><g><g><path fill="#9A745E" d="M187.003 258.535v13.671l-10.978 0.034l-12.069 0.035v-13.732L187.003 258.535z"/><path fill="#B2927B" d="M187.003 258.535c-2.857 2.559-6.338 4.433-10.14 4.802c-0.009 0-0.023 0-0.04 0 c-0.445 0.046-0.891 0.069-1.343 0.069c-4.333 0-8.321-2.005-11.524-4.863c-4.672-4.187-7.683-10.195-7.683-14.458v-8.829 c0-10.67 8.536-19.321 19.207-19.321c10.663 0 19.2 8.7 19.2 19.321v8.828C194.687 248.3 191.7 254.3 187 258.535z "/><path fill="#BC8A29" d="M207.355 357.219c1.252-3.55 1.928-7.367 1.928-11.34v-48.401c0-7.645-2.51-14.712-6.768-20.404v-0.007 c-2.736-3.673-10.3-10.275-15.513-12.547l-10.978 7.721l-12.069-7.651c-5.731 2.2-13.844 9.042-16.701 13.1 c0.007 0 0 0 0 0.017c-0.007-0.006-0.015-0.011-0.021-0.016c-3.993 5.585-6.345 12.438-6.345 19.836l0 0v48.401 c0 3.9 0.7 7.7 1.9 11.201h0.007c0.023-0.004 0.048-0.011 0.071-0.017c-0.023 0.006-0.046 0.013-0.069 0 c4.633 13.4 17.3 23 32.3 22.985C190 380.1 202.7 370.5 207.4 357.219z"/></g></g><g><g><path fill="#BE9B84" d="M227.845 50.817v16.126l-12.949 0.041l-14.236 0.041V50.826L227.845 50.817z"/><path fill="#EBBB99" d="M227.845 50.817c-3.371 3.018-7.477 5.229-11.961 5.664c-0.01 0-0.027 0-0.047 0 c-0.525 0.055-1.051 0.082-1.584 0.082c-5.111 0-9.816-2.365-13.594-5.736c-5.512-4.938-9.062-12.026-9.062-17.055V23.358 c0-12.587 10.068-22.792 22.656-22.792c12.578 0 22.7 10.2 22.7 22.792v10.413C236.91 38.8 233.4 45.9 227.8 50.8 z"/><path fill="#AC2324" d="M251.853 167.224c1.477-4.188 2.273-8.69 2.273-13.376V96.753c0-9.017-2.961-17.354-7.982-24.069v-0.008 c-3.229-4.332-12.15-12.121-18.299-14.799l-12.949 9.107l-14.236-9.026c-6.762 2.596-16.33 10.666-19.701 15.4 c0.008 0 0 0 0 0.019c-0.008-0.006-0.018-0.012-0.025-0.018c-4.711 6.588-7.484 14.671-7.484 23.398l0 0v57.094 c0 4.6 0.8 9.1 2.2 13.213h0.008c0.027-0.005 0.057-0.014 0.084-0.019c-0.027 0.005-0.055 0.014-0.082 0 c5.465 15.8 20.5 27.1 38.1 27.112C231.381 194.2 246.3 182.9 251.9 167.224z"/></g><path opacity="0.1" fill="#020202" d="M246.144 72.685c5.021 6.7 8 15.1 8 24.069v57.094 c0 4.686-0.797 9.188-2.273 13.375c-7.469-0.471-13.133-6.68-13.133-14.281V85.218C238.72 79.8 241.7 75.1 246.1 72.685z"/><path opacity="0.1" fill="#FCFCFC" d="M173.472 96.672c0-8.727 2.773-16.81 7.484-23.398c3.717 2.6 6.1 6.9 6.1 11.9 v67.724c0 7.096-5.092 12.967-11.373 14.119h-0.008c-1.432-4.143-2.211-8.582-2.211-13.213v-1.359V96.672L173.472 96.672z"/></g><g><g><path fill="#BE9B84" d="M145.863 50.817v16.126l-12.949 0.041l-14.236 0.041V50.826L145.863 50.817z"/><path fill="#EBBB99" d="M145.863 50.817c-3.371 3.018-7.477 5.229-11.962 5.664c-0.009 0-0.027 0-0.046 0 c-0.525 0.055-1.051 0.082-1.585 0.082c-5.111 0-9.815-2.365-13.594-5.736c-5.511-4.938-9.062-12.026-9.062-17.055V23.358 c0-12.587 10.068-22.792 22.656-22.792c12.578 0 22.7 10.2 22.7 22.792v10.413 C154.927 38.8 151.4 45.9 145.9 50.817z"/><path fill="#D6A343" d="M169.87 167.224c1.478-4.188 2.274-8.69 2.274-13.376V96.753c0-9.017-2.962-17.354-7.983-24.069v-0.008 c-3.228-4.332-12.149-12.121-18.298-14.799l-12.949 9.107l-14.236-9.026c-6.762 2.596-16.331 10.666-19.702 15.4 c0.009 0 0 0 0 0.019c-0.009-0.006-0.018-0.012-0.025-0.018c-4.712 6.588-7.484 14.671-7.484 23.398h-0.001 v57.094c0 4.6 0.8 9.1 2.2 13.213h0.009c0.027-0.005 0.056-0.014 0.083-0.019c-0.027 0.005-0.054 0.014-0.081 0 c5.464 15.8 20.5 27.1 38.1 27.112C149.398 194.2 164.4 182.9 169.9 167.224z"/></g><path opacity="0.1" fill="#020202" d="M164.161 72.685c5.021 6.7 8 15.1 8 24.069v57.094 c0 4.686-0.797 9.188-2.274 13.375c-7.468-0.471-13.132-6.68-13.132-14.281V85.218C156.738 79.8 159.7 75.1 164.2 72.685z"/><path opacity="0.1" fill="#FCFCFC" d="M91.49 96.672c0-8.727 2.772-16.81 7.484-23.398c3.716 2.6 6.1 6.9 6.1 11.9 v67.724c0 7.096-5.093 12.967-11.373 14.119H93.7c-1.432-4.143-2.211-8.582-2.211-13.213v-1.359L91.49 96.672L91.49 96.672z"/></g><g><g><path fill="#9A745E" d="M46.601 258.1v13.671l-10.978 0.035l-12.07 0.033v-13.731L46.601 258.1z"/><polygon fill="#A3A3A3" points="46.6,264.1 46.6,264.1 52.1,267.4 38.9,277.5 35.6,271.8"/><path fill="#B2927B" d="M46.601 258.1c-2.856 2.559-6.338 4.433-10.14 4.802c-0.008 0-0.023 0-0.039 0 c-0.445 0.046-0.892 0.068-1.345 0.068c-4.331 0-8.319-2.004-11.523-4.862c-4.671-4.187-7.683-10.194-7.683-14.458v-8.827 c0-10.671 8.536-19.321 19.206-19.321c10.664 0 19.2 8.7 19.2 19.321v8.827C54.284 247.9 51.3 253.9 46.6 258.1z"/><polygon fill="#A3A3A3" points="35.6,271.9 32.3,277.4 17.6,267.4 23.4,264.2"/><path fill="#477235" d="M6.853 277.206c-3.994 5.584-6.346 12.438-6.346 19.836v47.247v1.152c0 3.9 0.7 7.7 1.9 11.2H2.39 c0 0 0 0 0 0c4.632 13.4 17.3 23 32.3 22.986c14.903 0 27.579-9.542 32.258-22.848c0.001 0 0 0 0 0 c1.253-3.551 1.928-7.367 1.928-11.339v-48.399c0-7.645-2.512-14.712-6.768-20.404v-0.008c-2.735-3.672-6.192-6.776-10.156-9.104 l0 0h-0.008l-13.06 9.795l-3.265-5.516l-3.358 5.516l-14.565-9.949C13.415 269.8 9.7 273.2 6.9 277.206L6.853 277.206z"/></g></g><path fill="#897164" d="M227.213 256.686c-3.758 0-7.218-1.74-9.997-4.219c-4.054-3.633-6.666-8.845-6.666-12.543v-7.66 c0-9.258 7.405-16.764 16.663-16.764c9.253 0 16.7 7.5 16.7 16.764v7.66c0 3.691-2.612 8.904-6.667 12.5 c-2.479 2.221-5.499 3.848-8.797 4.166c-0.006 0-0.02 0-0.033 0C227.994 256.7 227.6 256.7 227.2 256.686z"/><g><g><path fill="#BE9B84" d="M60.5 55.95v17.795L46.21 73.79l-15.711 0.045V55.96L60.5 55.95z"/><polygon fill="#FFFFFF" points="60.5,63.7 60.5,63.7 67.7,68 50.4,81.3 46.2,73.8"/><path fill="#EBBB99" d="M60.5 55.95c-3.719 3.33-8.25 5.77-13.199 6.25c-0.01 0-0.03 0-0.051 0c-0.58 0.06-1.16 0.09-1.75 0.1 c-5.639 0-10.83-2.61-15-6.33c-6.08-5.45-10-13.27-10-18.82V25.65c0-13.89 11.111-25.15 25-25.15c13.881 0 25 11.3 25 25.1 v11.49C70.5 42.7 66.6 50.5 60.5 55.95z"/><polygon fill="#FFFFFF" points="46.2,73.9 41.8,81.1 22.8,68.1 30.3,63.9"/><path fill="#7EBB65" d="M8.76 80.821C3.561 88.1 0.5 97 0.5 106.641v61.5v1.5c0 5.1 0.9 10 2.4 14.58h0.01 c0 0 0 0 0 0c6.029 17.4 22.6 29.9 42 29.919c19.4 0 35.9-12.42 41.99-29.74c0 0 0 0 0 0 c1.631-4.621 2.51-9.59 2.51-14.76v-63c0-9.952-3.27-19.151-8.809-26.561v-0.01c-3.562-4.78-8.062-8.82-13.221-11.85v0.001h-0.01 l-17 12.75l-4.25-7.181l-4.371 7.181L22.881 68.02C17.301 71.2 12.5 75.6 8.8 80.821L8.76 80.821z"/></g><path opacity="0.1" fill="#020202" d="M80.691 80.511c5.539 7.4 8.8 16.6 8.8 26.561v63c0 5.17-0.879 10.139-2.51 14.8 c-8.24-0.521-14.49-7.371-14.49-15.76V94.341C72.5 88.4 75.8 83.2 80.7 80.511z"/><path opacity="0.1" fill="#FFFFFF" d="M0.5 106.792c0-9.631 3.062-18.551 8.26-25.82c4.103 2.8 6.7 7.6 6.7 13.09v74.73 c0 7.83-5.619 14.31-12.549 15.58h-0.01c-1.58-4.57-2.441-9.472-2.441-14.58v-1.5V106.792z"/></g></svg>