<svg xmlns="http://www.w3.org/2000/svg" viewBox="0 0 86.29 79.16"><title>thumbs-up</title><g id="Layer_2" data-name="Layer 2"><g id="Layer_1-2" data-name="Layer 1"><path d="M81.79,62.26l-5.63,8.27H62.77l-10.7,5.35a3,3,0,0,1-1.23.28H25.51L19.88,28.32,76.16,53.65Z" style="fill:#ffa78f;stroke:#000;stroke-miterlimit:10;stroke-width:6px"/><path d="M31.14,44.5a6.25,6.25,0,0,0-6.33-6.23,6.42,6.42,0,0,0,6.33-6.43,6.34,6.34,0,0,0-6.33-6.33H9.33A6.33,6.33,0,0,0,3,31.84a6.41,6.41,0,0,0,6.33,6.43A6.25,6.25,0,0,0,3,44.5a6.33,6.33,0,0,0,6.33,6.34A6.32,6.32,0,0,0,3,57.17a6.41,6.41,0,0,0,6.33,6.42A6.25,6.25,0,0,0,3,69.83a6.32,6.32,0,0,0,6.33,6.33H24.81a6.33,6.33,0,0,0,6.33-6.33,6.25,6.25,0,0,0-6.33-6.24,6.42,6.42,0,0,0,6.33-6.42,6.33,6.33,0,0,0-6.33-6.33A6.34,6.34,0,0,0,31.14,44.5Z" style="fill:#ffbfab;stroke:#000;stroke-linecap:square;stroke-linejoin:round;stroke-width:6px"/><path d="M81.79,46.78l-5.63,6.87H45.21a18.5,18.5,0,0,1-8.44-2A19.6,19.6,0,0,1,25.51,34V11.44A7.74,7.74,0,0,1,26,8.63,8.4,8.4,0,0,1,34,3a2.79,2.79,0,0,1,2.82,2.81v9a16.66,16.66,0,0,0,4.78,11.59L57.31,36.77H76.16Z" style="fill:#ffbfab;stroke:#000;stroke-linecap:square;stroke-linejoin:round;stroke-width:6px"/><path d="M83.48,35.83H75V72.4a2.82,2.82,0,0,0,4.08,2.52l6-4.48a2.8,2.8,0,0,0,1.14-2.26V38.64A2.81,2.81,0,0,0,83.48,35.83Z" style="fill:#463b85"/><line x1="9.33" y1="38.27" x2="24.81" y2="38.27" style="fill:#f89580;stroke:#000;stroke-miterlimit:10;stroke-width:6px"/><line x1="9.33" y1="50.84" x2="24.81" y2="50.84" style="fill:#f89580;stroke:#000;stroke-miterlimit:10;stroke-width:6px"/><line x1="9.33" y1="63.59" x2="24.81" y2="63.59" style="fill:#f89580;stroke:#000;stroke-miterlimit:10;stroke-width:6px"/><rect x="48.02" y="52.24" width="27.01" height="8.44" style="fill:#ffa78f"/><rect x="46.39" y="49.33" width="28.65" height="5.06" style="fill:#ffbfab"/></g></g></svg>