<svg xmlns="http://www.w3.org/2000/svg" viewBox="0 0 664 664"><title>user</title><g id="Layer_2" data-name="Layer 2"><g id="Layer_1-2" data-name="Layer 1"><circle cx="332" cy="332" r="332" style="fill:#6a43f9"/><path d="M184.77,395.9A87.51,87.51,0,0,0,297.93,397l1.36-1.14A306,306,0,0,1,389.61,409a95.77,95.77,0,0,1,18,34c12.32,42.68-10.52,79.66-15.21,86.93H91.91v-81a53,53,0,0,1,53-53Z" style="fill:#00efd1"/><path d="M198.85,146.52A26.48,26.48,0,0,1,228.26,135L258.08,143a88.43,88.43,0,0,0,36.77,2L360,134.78c0,22.19-8.73,45.5-27.48,55.17a41.57,41.57,0,0,1-6.4,2.63s-64.41,9.89-105.71,12.3c-5.71.33-11,.52-15.58.52a10,10,0,0,1-10-10V160.57A26.23,26.23,0,0,1,198.85,146.52Z" style="fill:#4b5d63"/><path d="M299.29,358.8a88.08,88.08,0,0,1-114.29,0,93.19,93.19,0,0,1-33.29-71.15V233.18H152c10.26,1.64,38.32,4.4,68.38-28.13v-.17c41.3-2.41,105.71-12.3,105.71-12.3a41.57,41.57,0,0,0,6.4-2.63l.11.21v97.48A93.26,93.26,0,0,1,299.29,358.8ZM304.38,273A26.38,26.38,0,1,0,278,299.35,26.38,26.38,0,0,0,304.38,273Zm-71.69,0a26.39,26.39,0,1,0-26.39,26.38A26.39,26.39,0,0,0,232.69,273Z" style="fill:#f7caa5"/><path d="M299.29,358.8v37.1L297.93,397a87.51,87.51,0,0,1-113.16-1.14V359.07l.23-.28A88.08,88.08,0,0,0,299.29,358.8Z" style="fill:#edb288"/><path d="M304.38,273A26.38,26.38,0,1,1,278,246.59,26.38,26.38,0,0,1,304.38,273Z" style="fill:#fedb41"/><path d="M206.3,246.59A26.38,26.38,0,1,1,179.92,273,26.38,26.38,0,0,1,206.3,246.59Z" style="fill:#fedb41"/><path d="M220.37,204.88v.17c-30.06,32.53-58.12,29.77-68.38,28.13h-.29V225.9a90.45,90.45,0,0,1,47.14-79.38,26.23,26.23,0,0,0-4,14v34.87a10,10,0,0,0,10,10C209.39,205.4,214.66,205.21,220.37,204.88Z" style="fill:#4b5d63"/><path d="M238.46,276.78a8.71,8.71,0,0,1,7.4,0,32.38,32.38,0,1,0,.9-12.29,20.7,20.7,0,0,0-9.2,0,32.39,32.39,0,1,0,.9,12.29ZM278,252.58A20.38,20.38,0,1,1,257.62,273,20.38,20.38,0,0,1,278,252.58ZM185.92,273a20.39,20.39,0,1,1,20.38,20.38A20.37,20.37,0,0,1,185.92,273Z" style="fill:#083863"/><path d="M567.38,406.15l4.29,21.34a21,21,0,0,1-14.23,24.17l-28,8.9L515.63,392l29.28-2.61A21,21,0,0,1,567.38,406.15Z" style="fill:#fedb41"/><path d="M529.66,460.51l10.57,52.58L405.74,494.38l-16.69-83,116.79-69.25Z" style="fill:#00acea"/><path d="M389.06,411.35l16.68,83-64.61,13a10.51,10.51,0,0,1-12.38-8.23l-12.54-62.41a10.52,10.52,0,0,1,8.24-12.38Z" style="fill:#fedb41"/></g></g></svg>