<svg xmlns="http://www.w3.org/2000/svg" viewBox="0 0 94.44 146"><title>votes</title><g id="Layer_2" data-name="Layer 2"><g id="Layer_1-2" data-name="Layer 1"><path d="M36,143.86H7.31a5.13,5.13,0,0,1-5.15-5.11V110.3a5.13,5.13,0,0,1,5.15-5.11H36a5.14,5.14,0,0,1,5.16,5.11v28.45A5.13,5.13,0,0,1,36,143.86Z" style="fill:#00ff9d"/><path d="M87.13,143.86H58.41a5.13,5.13,0,0,1-5.16-5.11V110.3a5.14,5.14,0,0,1,5.16-5.11H87.13a5.13,5.13,0,0,1,5.15,5.11v28.45A5.13,5.13,0,0,1,87.13,143.86Z" style="fill:#ef2034"/><path d="M37.94,96.67H5.4a3.23,3.23,0,0,1-3.24-3.21V91A3.23,3.23,0,0,1,5.4,87.74H37.94A3.23,3.23,0,0,1,41.19,91v2.51A3.23,3.23,0,0,1,37.94,96.67Z" style="fill:#00ff9d"/><path d="M37.94,79.55H5.4a3.23,3.23,0,0,1-3.24-3.22v-2.5A3.23,3.23,0,0,1,5.4,70.62H37.94a3.23,3.23,0,0,1,3.25,3.21v2.5A3.23,3.23,0,0,1,37.94,79.55Z" style="fill:#00ff9d"/><path d="M37.94,62.43H5.4a3.23,3.23,0,0,1-3.24-3.22v-2.5A3.23,3.23,0,0,1,5.4,53.5H37.94a3.23,3.23,0,0,1,3.25,3.21v2.5A3.23,3.23,0,0,1,37.94,62.43Z" style="fill:#00ff9d"/><path d="M37.94,28.18H5.4A3.22,3.22,0,0,1,2.16,25v-2.5A3.23,3.23,0,0,1,5.4,19.26H37.94a3.23,3.23,0,0,1,3.25,3.21V25A3.22,3.22,0,0,1,37.94,28.18Z" style="fill:#00ff9d"/><path d="M37.94,45.31H5.4a3.23,3.23,0,0,1-3.24-3.22v-2.5A3.23,3.23,0,0,1,5.4,36.38H37.94a3.23,3.23,0,0,1,3.25,3.21v2.5A3.23,3.23,0,0,1,37.94,45.31Z" style="fill:#00ff9d"/><path d="M37.94,11.06H5.4A3.23,3.23,0,0,1,2.16,7.85V5.35A3.22,3.22,0,0,1,5.4,2.14H37.94a3.22,3.22,0,0,1,3.25,3.21v2.5A3.23,3.23,0,0,1,37.94,11.06Z" style="fill:#00ff9d"/><path d="M38,87.74H26.3A3.23,3.23,0,0,1,29.54,91v2.51a3.23,3.23,0,0,1-3.24,3.21H38a3.23,3.23,0,0,0,3.24-3.21V91A3.23,3.23,0,0,0,38,87.74Z" style="fill:#35efba"/><path d="M38,70.62H26.3a3.23,3.23,0,0,1,3.24,3.21v2.51a3.23,3.23,0,0,1-3.24,3.21H38a3.23,3.23,0,0,0,3.24-3.21V73.83A3.23,3.23,0,0,0,38,70.62Z" style="fill:#35efba"/><path d="M38,53.5H26.3a3.23,3.23,0,0,1,3.24,3.21v2.51a3.23,3.23,0,0,1-3.24,3.21H38a3.23,3.23,0,0,0,3.24-3.21V56.71A3.23,3.23,0,0,0,38,53.5Z" style="fill:#35efba"/><path d="M38,19.26H26.3a3.22,3.22,0,0,1,3.24,3.21V25a3.22,3.22,0,0,1-3.24,3.21H38A3.22,3.22,0,0,0,41.19,25v-2.5A3.22,3.22,0,0,0,38,19.26Z" style="fill:#35efba"/><path d="M38,36.38H26.3a3.23,3.23,0,0,1,3.24,3.21V42.1a3.23,3.23,0,0,1-3.24,3.21H38a3.23,3.23,0,0,0,3.24-3.21V39.59A3.23,3.23,0,0,0,38,36.38Z" style="fill:#35efba"/><path d="M38,2.14H26.3a3.22,3.22,0,0,1,3.24,3.21v2.5a3.22,3.22,0,0,1-3.24,3.21H38a3.22,3.22,0,0,0,3.24-3.21V5.35A3.22,3.22,0,0,0,38,2.14Z" style="fill:#35efba"/><path d="M89,96.67H56.5a3.24,3.24,0,0,1-3.25-3.21V91a3.24,3.24,0,0,1,3.25-3.21H89A3.23,3.23,0,0,1,92.28,91v2.51A3.23,3.23,0,0,1,89,96.67Z" style="fill:#ef2034"/><path d="M89,79.55H56.5a3.24,3.24,0,0,1-3.25-3.22v-2.5a3.24,3.24,0,0,1,3.25-3.21H89a3.23,3.23,0,0,1,3.24,3.21v2.5A3.23,3.23,0,0,1,89,79.55Z" style="fill:#ef2034"/><path d="M89,62.43H56.5a3.24,3.24,0,0,1-3.25-3.22v-2.5A3.24,3.24,0,0,1,56.5,53.5H89a3.23,3.23,0,0,1,3.24,3.21v2.5A3.23,3.23,0,0,1,89,62.43Z" style="fill:#ef2034"/><path d="M89.05,87.74H78.82A3.23,3.23,0,0,1,82.06,91v2.51a3.23,3.23,0,0,1-3.24,3.21H89.05a3.22,3.22,0,0,0,3.23-3.21V91A3.22,3.22,0,0,0,89.05,87.74Z" style="fill:#f43490"/><path d="M89.05,70.62H78.82a3.23,3.23,0,0,1,3.24,3.21v2.51a3.23,3.23,0,0,1-3.24,3.21H89.05a3.22,3.22,0,0,0,3.23-3.21V73.83A3.22,3.22,0,0,0,89.05,70.62Z" style="fill:#f43490"/><path d="M89.05,53.5H78.82a3.23,3.23,0,0,1,3.24,3.21v2.51a3.23,3.23,0,0,1-3.24,3.21H89.05a3.22,3.22,0,0,0,3.23-3.21V56.71A3.22,3.22,0,0,0,89.05,53.5Z" style="fill:#f43490"/><path d="M36,103.06H7.31A7.29,7.29,0,0,0,0,110.3v6.24a2.16,2.16,0,0,0,4.31,0V110.3a3,3,0,0,1,3-3H36a3,3,0,0,1,3,3v28.46a3,3,0,0,1-3,3H7.31a3,3,0,0,1-3-3V126.24a2.16,2.16,0,0,0-4.31,0v12.52A7.29,7.29,0,0,0,7.31,146H36a7.29,7.29,0,0,0,7.31-7.24V110.3A7.29,7.29,0,0,0,36,103.06Z"/><path d="M87.13,103.06H58.41a7.29,7.29,0,0,0-7.31,7.24v28.46A7.29,7.29,0,0,0,58.41,146H87.13a7.29,7.29,0,0,0,7.31-7.24V110.3A7.29,7.29,0,0,0,87.13,103.06Zm3,35.7a3,3,0,0,1-3,3H58.41a3,3,0,0,1-3-3V110.3a3,3,0,0,1,3-3H87.13a3,3,0,0,1,3,3Z"/><path d="M16.75,133.5a2.19,2.19,0,0,0,1.53-.62l13.8-13.68a2.12,2.12,0,0,0,0-3,2.18,2.18,0,0,0-3,0L16.75,128.34l-2.43-2.41a2.18,2.18,0,0,0-3.05,0,2.11,2.11,0,0,0,0,3l4,3.93A2.19,2.19,0,0,0,16.75,133.5Z"/><path d="M82.36,115a2.16,2.16,0,0,0-3,0l-6.54,6.48L66.23,115a2.16,2.16,0,0,0-3.05,0,2.12,2.12,0,0,0,0,3l6.54,6.48L63.18,131a2.14,2.14,0,0,0,1.52,3.65,2.15,2.15,0,0,0,1.53-.63l6.54-6.48L79.31,134a2.15,2.15,0,0,0,3-3l-6.54-6.48,6.54-6.48A2.12,2.12,0,0,0,82.36,115Z"/><path d="M38,85.61H5.4A5.37,5.37,0,0,0,0,91v2.51A5.37,5.37,0,0,0,5.4,98.8H38a5.37,5.37,0,0,0,5.39-5.34V91A5.37,5.37,0,0,0,38,85.61ZM39,93.46A1.08,1.08,0,0,1,38,94.53H5.4a1.08,1.08,0,0,1-1.09-1.07V91A1.08,1.08,0,0,1,5.4,89.88H38A1.08,1.08,0,0,1,39,91Z"/><path d="M38,68.48H5.4A5.38,5.38,0,0,0,0,73.83v2.51a5.37,5.37,0,0,0,5.4,5.34H38a5.37,5.37,0,0,0,5.39-5.34V73.83A5.38,5.38,0,0,0,38,68.48ZM39,76.34A1.08,1.08,0,0,1,38,77.41H5.4a1.08,1.08,0,0,1-1.09-1.07V73.83A1.08,1.08,0,0,1,5.4,72.76H38A1.08,1.08,0,0,1,39,73.83Z"/><path d="M38,51.36H5.4A5.38,5.38,0,0,0,0,56.71v2.51a5.37,5.37,0,0,0,5.4,5.34H38a5.38,5.38,0,0,0,5.39-5.34V56.71A5.38,5.38,0,0,0,38,51.36ZM39,59.22A1.08,1.08,0,0,1,38,60.29H5.4a1.08,1.08,0,0,1-1.09-1.07V56.71A1.08,1.08,0,0,1,5.4,55.64H38A1.08,1.08,0,0,1,39,56.71Z"/><path d="M38,17.12h-3.6a2.14,2.14,0,1,0,0,4.27H38A1.09,1.09,0,0,1,39,22.47V25A1.08,1.08,0,0,1,38,26.05H5.4A1.08,1.08,0,0,1,4.31,25v-2.5A1.09,1.09,0,0,1,5.4,21.39H24.58a2.14,2.14,0,1,0,0-4.27H5.4A5.38,5.38,0,0,0,0,22.47V25a5.38,5.38,0,0,0,5.4,5.35H38A5.38,5.38,0,0,0,43.34,25v-2.5A5.38,5.38,0,0,0,38,17.12Z"/><path d="M38,34.24H5.4A5.38,5.38,0,0,0,0,39.59V42.1a5.38,5.38,0,0,0,5.4,5.34H38a5.38,5.38,0,0,0,5.39-5.34V39.59A5.38,5.38,0,0,0,38,34.24ZM39,42.1A1.08,1.08,0,0,1,38,43.17H5.4A1.08,1.08,0,0,1,4.31,42.1V39.59A1.08,1.08,0,0,1,5.4,38.52H38A1.08,1.08,0,0,1,39,39.59Z"/><path d="M38,0H5.4A5.38,5.38,0,0,0,0,5.35v2.5A5.38,5.38,0,0,0,5.4,13.2H38a5.38,5.38,0,0,0,5.39-5.35V5.35A5.38,5.38,0,0,0,38,0ZM39,7.85A1.09,1.09,0,0,1,38,8.93H5.4A1.09,1.09,0,0,1,4.31,7.85V5.35A1.09,1.09,0,0,1,5.4,4.27H38A1.09,1.09,0,0,1,39,5.35Z"/><path d="M89.05,85.61h-3.5a2.14,2.14,0,1,0,0,4.27h3.5A1.08,1.08,0,0,1,90.13,91v2.51a1.08,1.08,0,0,1-1.08,1.07H56.49a1.08,1.08,0,0,1-1.08-1.07V91a1.08,1.08,0,0,1,1.08-1.07H76.71a2.14,2.14,0,1,0,0-4.27H56.49A5.37,5.37,0,0,0,51.1,91v2.51a5.37,5.37,0,0,0,5.39,5.34H89.05a5.37,5.37,0,0,0,5.39-5.34V91A5.37,5.37,0,0,0,89.05,85.61Z"/><path d="M89.05,68.48H56.49a5.38,5.38,0,0,0-5.39,5.35v2.51a5.37,5.37,0,0,0,5.39,5.34H89.05a5.37,5.37,0,0,0,5.39-5.34V73.83A5.38,5.38,0,0,0,89.05,68.48Zm1.08,7.86A1.08,1.08,0,0,1,89,77.41H56.49a1.08,1.08,0,0,1-1.08-1.07V73.83a1.08,1.08,0,0,1,1.08-1.07H89.05a1.08,1.08,0,0,1,1.08,1.07Z"/><path d="M89.05,51.36H56.49a5.38,5.38,0,0,0-5.39,5.35v2.51a5.37,5.37,0,0,0,5.39,5.34H89.05a5.38,5.38,0,0,0,5.39-5.34V56.71A5.38,5.38,0,0,0,89.05,51.36Zm1.08,7.86A1.08,1.08,0,0,1,89,60.29H56.49a1.08,1.08,0,0,1-1.08-1.07V56.71a1.08,1.08,0,0,1,1.08-1.07H89.05a1.08,1.08,0,0,1,1.08,1.07Z"/></g></g></svg>